<svg width="86" height="306" viewBox="0 0 86 306" fill="none" xmlns="http://www.w3.org/2000/svg">
<path fill-rule="evenodd" clip-rule="evenodd" d="M0.000244141 35.5239C2.11684 35.2084 4.28222 35.0449 6.48488 35.0449C30.6921 35.0449 50.3244 54.7216 50.3244 78.8844V305.1H51.035V78.8844C51.035 54.3218 31.0474 34.3342 6.48488 34.3342C4.28287 34.3342 2.11762 34.4949 0.000244141 34.805V35.5239Z" fill="#219D80"/>
<path fill-rule="evenodd" clip-rule="evenodd" d="M6.48561 46.5044C4.26524 46.5044 2.09638 46.729 0.000549316 47.1566V46.4308C2.09803 46.0129 4.26655 45.7937 6.48561 45.7937C24.741 45.7937 39.5762 60.6289 39.5762 78.8843V305.1H38.91V78.8843C38.91 61.0287 24.3412 46.5044 6.48561 46.5044Z" fill="#219D80"/>
<path fill-rule="evenodd" clip-rule="evenodd" d="M0.00012207 23.9623C2.12732 23.7133 4.2912 23.5852 6.48469 23.5852C36.9991 23.5852 61.7837 48.3698 61.7837 78.8842V305.099H62.4944V78.8842C62.4944 48.0145 37.3544 22.9189 6.48469 22.9189C4.29172 22.9189 2.12789 23.0456 0.00012207 23.292V23.9623Z" fill="#219D80"/>
<path fill-rule="evenodd" clip-rule="evenodd" d="M0 12.4378C2.13395 12.2314 4.29703 12.1257 6.4844 12.1257C43.306 12.1257 73.243 42.0627 73.243 78.8843V305.1H73.9093V78.8843C73.9093 41.7074 43.6613 11.4595 6.4844 11.4595C4.29737 11.4595 2.13432 11.5642 0 11.7688V12.4378Z" fill="#219D80"/>
<path fill-rule="evenodd" clip-rule="evenodd" d="M0.000183105 0.932453C2.13854 0.756156 4.301 0.666253 6.48406 0.666253C49.6129 0.666253 84.7022 35.7556 84.7022 78.8844V305.1H85.3685V78.8844C85.3685 35.4003 50.0126 0 6.48406 0C4.30125 0 2.1388 0.0892028 0.000183105 0.264153V0.932453Z" fill="#219D80"/>
</svg>
