<svg width="80" height="80" viewBox="0 0 80 80" fill="none" xmlns="http://www.w3.org/2000/svg">
<circle cx="40" cy="40" r="38" fill="white" stroke="#219D80" stroke-width="4"/>
<g clip-path="url(#clip0_4_1037)">
<path d="M48 30.3334H23.9533C21.7733 30.3334 20 32.1067 20 34.286V48.38C20 50.56 21.7733 52.3334 23.9533 52.3334H28V59C28 59.2754 28.1693 59.5227 28.4267 59.622C28.5047 59.652 28.586 59.6667 28.6667 59.6667C28.8507 59.6667 29.0313 59.59 29.16 59.4487L35.628 52.3334H48C50.18 52.3334 51.9533 50.56 51.9533 48.3807V34.2867C51.9533 32.1067 50.18 30.3334 48 30.3334Z" fill="#219D80"/>
<path d="M56.0477 20.38L33.2863 20.3334C31.1063 20.3334 29.333 22.1067 29.333 24.2867V28.368C29.333 28.5454 29.403 28.7147 29.5283 28.84C29.6537 28.9647 29.823 29.0347 29.9997 29.0347C29.9997 29.0347 30.0003 29.0347 30.001 29.0347L46.713 29C52.6803 29 53.333 30.3474 53.333 34.2867V48.3807C53.333 48.4414 53.3263 48.5014 53.3237 48.5614L54.173 49.4954C54.3017 49.6367 54.4817 49.7134 54.6663 49.7134C54.747 49.7134 54.8283 49.6987 54.907 49.6687C55.1637 49.5694 55.333 49.322 55.333 49.0467V42.38H56.0463C58.2263 42.38 59.9997 40.6067 59.9997 38.4274V24.3334C59.9997 22.1534 58.2263 20.38 56.0477 20.38Z" fill="#219D80"/>
</g>
<defs>
<clipPath id="clip0_4_1037">
<rect width="40" height="40" fill="white" transform="translate(20 20)"/>
</clipPath>
</defs>
</svg>
