<svg width="80" height="80" viewBox="0 0 80 80" fill="none" xmlns="http://www.w3.org/2000/svg">
<circle cx="40" cy="40" r="38" fill="white" stroke="#219D80" stroke-width="4"/>
<path d="M58.1309 54.6799V60H21.8691V54.6787C21.8691 52.1665 24.035 49.0737 26.6809 47.817L32.5684 45.0198L36.6554 53.5367L38.748 47.8631C39.1606 47.9411 39.5697 48.0452 40 48.0452C40.4303 48.0452 40.8382 47.9411 41.252 47.8631L43.2382 53.2577L47.2448 44.9252L53.3227 47.8158C55.965 49.0725 58.1309 52.1653 58.1309 54.6799ZM27.2176 36.0336V32.1913C27.2176 31.5399 27.5569 30.9688 28.0688 30.6402C28.7557 24.6604 33.8417 20 40.0024 20C46.163 20 51.2502 24.6604 51.9383 30.6402C52.449 30.9688 52.7883 31.5399 52.7883 32.1913V36.0336C52.7883 37.0539 51.9619 37.8814 50.9405 37.8814C49.919 37.8814 49.0926 37.0539 49.0926 36.0336V35.2261C48.0924 40.2565 44.4098 44.9264 40.0035 44.9264C35.5973 44.9264 31.9146 40.2565 30.9145 35.2261V36.0336C30.9145 36.8611 30.3647 37.5539 29.614 37.7892C30.3494 40.292 31.9808 42.4543 34.2342 43.873C34.6503 43.7359 35.1753 43.7619 35.6848 44.0267C36.5029 44.4523 36.9203 45.2799 36.6105 45.871C36.3019 46.4621 35.3893 46.5946 34.5664 46.1678C33.9658 45.8545 33.5851 45.3284 33.545 44.8366C30.9641 43.1861 29.134 40.6597 28.3786 37.7455C27.6999 37.4735 27.2176 36.8115 27.2176 36.0336ZM29.3279 30.2087C29.3835 30.2122 29.4367 30.2134 29.4899 30.2335C29.6235 30.2831 29.7204 30.3789 29.7878 30.4912C30.1886 30.6615 30.5078 30.9724 30.704 31.3578C31.249 26.2493 35.1977 23.5467 40 23.5467C44.8023 23.5467 48.751 26.2493 49.296 31.3578C49.5667 30.827 50.081 30.4475 50.6969 30.3683C49.8977 25.1747 45.4123 21.1811 40 21.1811C34.6433 21.1822 30.1933 25.0943 29.3279 30.2087Z" fill="#219D80"/>
</svg>
