<svg width="12" height="10" viewBox="0 0 12 10" fill="none" xmlns="http://www.w3.org/2000/svg">
<g clip-path="url(#clip0_301_921)">
<path d="M6.00072 7.77766L10.891 3.32753C11.0042 3.2246 11.0665 3.08721 11.0665 2.9407C11.0665 2.7942 11.0042 2.6568 10.891 2.55388L10.5309 2.22616C10.2963 2.01291 9.91499 2.01291 9.68074 2.22616L5.5742 5.96304L1.46311 2.22201C1.34991 2.11908 1.19901 2.06226 1.03811 2.06226C0.877024 2.06226 0.726124 2.11908 0.612838 2.22201L0.252878 2.54973C0.139681 2.65274 0.0773201 2.79006 0.0773201 2.93656C0.0773201 3.08306 0.139681 3.22046 0.252878 3.32338L5.14759 7.77766C5.26115 7.88083 5.41276 7.93749 5.57393 7.93717C5.73573 7.93749 5.88726 7.88083 6.00072 7.77766Z" fill="white"/>
</g>
<defs>
<clipPath id="clip0_301_921">
<rect width="10" height="10.9892" fill="white" transform="matrix(0 1 -1 0 11.0665 0)"/>
</clipPath>
</defs>
</svg>
