<svg width="91" height="91" viewBox="0 0 91 91" fill="none" xmlns="http://www.w3.org/2000/svg">
<g clip-path="url(#clip0_1_595)">
<path d="M0.0193478 63.1456C0.0193478 75.1097 9.71753 84.8079 21.6814 84.8079C33.6454 84.8079 43.3436 75.1097 43.3436 63.1456C43.3436 51.1816 33.6454 41.4836 21.6814 41.4836C19.2226 41.4836 16.869 41.9122 14.6657 42.6676C19.5406 14.7088 41.343 -3.3214 21.1322 11.5178C-1.27854 27.9729 -0.00465403 62.4836 0.0204225 63.1161C0.0204225 63.1259 0.0193478 63.1347 0.0193478 63.1456Z" fill="white" fill-opacity="0.2"/>
<path d="M47.6756 63.1456C47.6756 75.1097 57.3738 84.8079 69.3378 84.8079C81.3018 84.8079 91 75.1097 91 63.1456C91 51.1816 81.3017 41.4836 69.3376 41.4836C66.8787 41.4836 64.5253 41.9122 62.3219 42.6676C67.1968 14.7088 88.9993 -3.3214 68.7885 11.5178C46.3778 27.9729 47.6515 62.4836 47.6767 63.1161C47.6767 63.1259 47.6756 63.1347 47.6756 63.1456Z" fill="white" fill-opacity="0.2"/>
</g>
<defs>
<clipPath id="clip0_1_595">
<rect width="91" height="91" fill="white"/>
</clipPath>
</defs>
</svg>
