<svg width="32" height="27" viewBox="0 0 32 27" fill="none" xmlns="http://www.w3.org/2000/svg">
<g clip-path="url(#clip0_1_1112)">
<path d="M23.4539 8.06933C23.4539 7.77354 23.3198 7.48988 23.0812 7.28073C22.8425 7.07158 22.5188 6.95408 22.1812 6.95408L11.9994 6.89832C11.6618 6.89832 11.3381 7.01581 11.0994 7.22496C10.8608 7.43411 10.7267 7.71778 10.7267 8.01356C10.7267 8.30935 10.8608 8.59301 11.0994 8.80216C11.3381 9.01131 11.6618 9.12881 11.9994 9.12881H19.0758L8.5503 18.3742C8.43101 18.4779 8.33632 18.6012 8.27171 18.7371C8.2071 18.8731 8.17383 19.0188 8.17383 19.166C8.17383 19.3133 8.2071 19.459 8.27171 19.5949C8.33632 19.7308 8.43101 19.8542 8.5503 19.9579C8.66862 20.0624 8.80938 20.1454 8.96447 20.202C9.11957 20.2586 9.28592 20.2878 9.45394 20.2878C9.62195 20.2878 9.7883 20.2586 9.9434 20.202C10.0985 20.1454 10.2393 20.0624 10.3576 19.9579L20.9085 10.7125V16.9355C20.9085 17.2313 21.0426 17.515 21.2813 17.7241C21.5199 17.9333 21.8437 18.0508 22.1812 18.0508C22.5188 18.0508 22.8425 17.9333 23.0812 17.7241C23.3198 17.515 23.4539 17.2313 23.4539 16.9355V8.06933Z" fill="#FDFDFD"/>
</g>
<defs>
<clipPath id="clip0_1_1112">
<rect width="30.5455" height="26.766" fill="white" transform="translate(0.544922 0.206787)"/>
</clipPath>
</defs>
</svg>
