<svg width="12" height="10" viewBox="0 0 12 10" fill="none" xmlns="http://www.w3.org/2000/svg">
<g clip-path="url(#clip0_46_548)">
<path d="M6.06725 7.7779L10.9575 3.32777C11.0707 3.22485 11.1331 3.08745 11.1331 2.94095C11.1331 2.79445 11.0707 2.65705 10.9575 2.55412L10.5974 2.2264C10.3628 2.01315 9.98152 2.01315 9.74727 2.2264L5.64073 5.96328L1.52964 2.22225C1.41644 2.11933 1.26554 2.0625 1.10464 2.0625C0.943552 2.0625 0.792653 2.11933 0.679367 2.22225L0.319406 2.54998C0.206209 2.65298 0.143848 2.7903 0.143848 2.9368C0.143848 3.08331 0.206209 3.2207 0.319406 3.32363L5.21412 7.7779C5.32767 7.88107 5.47929 7.93774 5.64046 7.93741C5.80226 7.93774 5.95379 7.88107 6.06725 7.7779Z" fill="white"/>
</g>
<defs>
<clipPath id="clip0_46_548">
<rect width="10" height="10.9892" fill="white" transform="matrix(0 1 -1 0 11.1331 0)"/>
</clipPath>
</defs>
</svg>
