<svg width="315" height="56" viewBox="0 0 315 56" fill="none" xmlns="http://www.w3.org/2000/svg">
<circle cx="27.933" cy="28.421" r="27.5789" fill="#D9F5EE"/>
<g clip-path="url(#clip0_1_1164)">
<path d="M44.9033 17.8963C43.641 18.45 42.296 18.817 40.8937 18.9952C42.3363 18.1339 43.4374 16.7804 43.955 15.149C42.61 15.951 41.125 16.5174 39.5424 16.8335C38.2652 15.4736 36.445 14.6314 34.4593 14.6314C30.6068 14.6314 27.5052 17.7584 27.5052 21.5919C27.5052 22.1435 27.5519 22.6738 27.6664 23.1788C21.8812 22.8966 16.7621 20.1239 13.3233 15.9C12.7229 16.9417 12.3707 18.1339 12.3707 19.4174C12.3707 21.8274 13.6118 23.9637 15.4617 25.2005C14.3437 25.1793 13.2469 24.8547 12.3177 24.3434C12.3177 24.3646 12.3177 24.3922 12.3177 24.4198C12.3177 27.8014 14.7298 30.6102 17.8929 31.2573C17.3265 31.4121 16.7091 31.4864 16.0684 31.4864C15.6229 31.4864 15.1732 31.4609 14.751 31.3676C15.6526 34.1234 18.2111 36.1493 21.2533 36.2151C18.8857 38.0671 15.8796 39.183 12.6253 39.183C12.0546 39.183 11.5073 39.1576 10.96 39.0876C14.0424 41.0754 17.6956 42.2103 21.6351 42.2103C34.4403 42.2103 41.4411 31.6031 41.4411 22.4087C41.4411 22.1011 41.4305 21.8041 41.4156 21.5092C42.7967 20.5291 43.9571 19.305 44.9033 17.8963Z" fill="#252A34"/>
</g>
<circle cx="114.118" cy="28.421" r="27.5789" fill="#D9F5EE"/>
<g clip-path="url(#clip1_1_1164)">
<path d="M117.1 28.421C117.1 30.0686 115.764 31.4043 114.117 31.4043C112.469 31.4043 111.134 30.0686 111.134 28.421C111.134 26.7735 112.469 25.4377 114.117 25.4377C115.764 25.4377 117.1 26.7735 117.1 28.421Z" fill="#252A34"/>
<path d="M119.155 19.4048H109.079C106.885 19.4048 105.101 21.1891 105.101 23.3826V33.4595C105.101 35.653 106.885 37.4372 109.079 37.4372H119.155C121.349 37.4372 123.133 35.653 123.133 33.4595V23.3826C123.133 21.1891 121.349 19.4048 119.155 19.4048ZM114.117 33.3932C111.375 33.3932 109.145 31.1627 109.145 28.421C109.145 25.6794 111.375 23.4489 114.117 23.4489C116.859 23.4489 119.089 25.6794 119.089 28.421C119.089 31.1627 116.859 33.3932 114.117 33.3932ZM119.818 23.7141C119.269 23.7141 118.824 23.2689 118.824 22.7196C118.824 22.1704 119.269 21.7252 119.818 21.7252C120.368 21.7252 120.813 22.1704 120.813 22.7196C120.813 23.2689 120.368 23.7141 119.818 23.7141Z" fill="#252A34"/>
<path d="M122.139 11.4492H106.095C101.161 11.4492 97.1455 15.4642 97.1455 20.3991V36.4426C97.1455 41.3775 101.161 45.3925 106.095 45.3925H122.139C127.074 45.3925 131.089 41.3775 131.089 36.4426V20.3991C131.089 15.4642 127.074 11.4492 122.139 11.4492ZM125.122 33.4593C125.122 36.7493 122.446 39.4259 119.156 39.4259H109.079C105.789 39.4259 103.112 36.7493 103.112 33.4593V23.3824C103.112 20.0925 105.789 17.4158 109.079 17.4158H119.156C122.446 17.4158 125.122 20.0925 125.122 23.3824V33.4593Z" fill="#252A34"/>
</g>
<circle cx="200.302" cy="28.421" r="27.5789" fill="#D9F5EE"/>
<g clip-path="url(#clip2_1_1164)">
<path d="M208.82 13.7266C206.22 12.209 203.38 11.4504 200.301 11.4504C197.221 11.4504 194.382 12.209 191.782 13.7266C189.181 15.2442 187.123 17.3031 185.605 19.9029C184.088 22.5033 183.329 25.343 183.329 28.422C183.329 31.8547 184.264 34.9706 186.135 37.7694C188.006 40.569 190.459 42.6386 193.494 43.9789C193.435 42.4026 193.531 41.0991 193.782 40.0678L195.969 30.8306C195.601 30.1089 195.417 29.2104 195.417 28.1347C195.417 26.8825 195.734 25.8362 196.367 24.9969C197 24.1568 197.774 23.7368 198.687 23.7368C199.424 23.7368 199.991 23.9796 200.389 24.4663C200.787 24.9523 200.986 25.5639 200.986 26.3003C200.986 26.7573 200.901 27.3136 200.732 27.9689C200.562 28.6246 200.341 29.3832 200.069 30.2451C199.796 31.1068 199.601 31.7954 199.483 32.3112C199.277 33.2097 199.446 33.9794 199.992 34.6204C200.536 35.2614 201.258 35.5816 202.157 35.5816C203.734 35.5816 205.026 34.7053 206.036 32.9521C207.045 31.1989 207.549 29.0701 207.549 26.5653C207.549 24.6356 206.927 23.0663 205.682 21.8583C204.437 20.6506 202.702 20.0462 200.478 20.0462C197.988 20.0462 195.973 20.8458 194.434 22.4437C192.895 24.0424 192.125 25.9541 192.125 28.178C192.125 29.504 192.501 30.6167 193.252 31.5153C193.502 31.81 193.583 32.1264 193.495 32.465C193.465 32.5536 193.406 32.7745 193.318 33.1278C193.23 33.4812 193.171 33.71 193.141 33.8129C193.023 34.2847 192.744 34.4321 192.301 34.2549C191.167 33.7835 190.305 32.9661 189.716 31.8021C189.127 30.6385 188.832 29.2906 188.832 27.7583C188.832 26.7712 188.99 25.7841 189.307 24.797C189.624 23.8099 190.117 22.8561 190.788 21.935C191.458 21.0149 192.261 20.2004 193.197 19.4934C194.132 18.786 195.27 18.2193 196.611 17.7914C197.951 17.3645 199.395 17.1508 200.942 17.1508C203.034 17.1508 204.913 17.6149 206.577 18.5428C208.242 19.4711 209.513 20.672 210.389 22.1451C211.266 23.6182 211.704 25.1943 211.704 26.8744C211.704 29.0842 211.321 31.0732 210.555 32.8412C209.789 34.6092 208.706 35.9976 207.307 37.0066C205.907 38.0156 204.315 38.5203 202.533 38.5203C201.634 38.5203 200.795 38.3104 200.014 37.8903C199.233 37.4703 198.695 36.9732 198.4 36.3986C197.738 39.0058 197.34 40.5609 197.207 41.0612C196.927 42.1075 196.352 43.3151 195.483 44.6854C197.06 45.1567 198.665 45.3923 200.301 45.3923C203.38 45.3923 206.22 44.6337 208.82 43.1165C211.42 41.5988 213.479 39.54 214.996 36.9395C216.513 34.3393 217.272 31.5 217.272 28.4206C217.272 25.3413 216.513 22.5019 214.996 19.9015C213.479 17.3031 211.42 15.2442 208.82 13.7266Z" fill="#252A34"/>
</g>
<circle cx="286.485" cy="28.421" r="27.5789" fill="#D9F5EE"/>
<path d="M301.723 20.4673C301.356 19.104 300.281 18.0293 298.918 17.6623C296.428 16.9809 286.467 16.9809 286.467 16.9809C286.467 16.9809 276.507 16.9809 274.017 17.6364C272.68 18.0031 271.579 19.1042 271.212 20.4673C270.557 22.9572 270.557 28.1211 270.557 28.1211C270.557 28.1211 270.557 33.311 271.212 35.7749C271.579 37.138 272.654 38.2126 274.017 38.5797C276.533 39.2612 286.468 39.2612 286.468 39.2612C286.468 39.2612 296.428 39.2612 298.918 38.6057C300.282 38.2388 301.356 37.1642 301.723 35.8011C302.379 33.311 302.379 28.1473 302.379 28.1473C302.379 28.1473 302.405 22.9572 301.723 20.4673ZM283.296 32.8916V23.3505L291.579 28.1211L283.296 32.8916Z" fill="#252A34"/>
<defs>
<clipPath id="clip0_1_1164">
<rect width="33.9433" height="33.9433" fill="white" transform="translate(10.96 11.4492)"/>
</clipPath>
<clipPath id="clip1_1_1164">
<rect width="33.9433" height="33.9433" fill="white" transform="translate(97.1455 11.4492)"/>
</clipPath>
<clipPath id="clip2_1_1164">
<rect width="33.9433" height="33.9433" fill="white" transform="translate(183.329 11.4492)"/>
</clipPath>
</defs>
</svg>
