<svg width="86" height="306" viewBox="0 0 86 306" fill="none" xmlns="http://www.w3.org/2000/svg">
<path fill-rule="evenodd" clip-rule="evenodd" d="M0 35.5237C2.11659 35.2082 4.28198 35.0447 6.48464 35.0447C30.6918 35.0447 50.3241 54.7213 50.3241 78.8841V305.099H51.0348V78.8841C51.0348 54.3216 31.0472 34.334 6.48464 34.334C4.28262 34.334 2.11737 34.4946 0 34.8048V35.5237Z" fill="#219D80"/>
<path fill-rule="evenodd" clip-rule="evenodd" d="M6.48555 46.5046C4.26518 46.5046 2.09631 46.7292 0.000488281 47.1569V46.4311C2.09797 46.0132 4.26649 45.7939 6.48555 45.7939C24.7409 45.7939 39.5761 60.6292 39.5761 78.8845V305.1H38.9099V78.8845C38.9099 61.0289 24.3411 46.5046 6.48555 46.5046Z" fill="#219D80"/>
<path fill-rule="evenodd" clip-rule="evenodd" d="M0 23.9623C2.1272 23.7133 4.29108 23.5852 6.48457 23.5852C36.999 23.5852 61.7836 48.3698 61.7836 78.8842V305.099H62.4943V78.8842C62.4943 48.0145 37.3543 22.9189 6.48457 22.9189C4.2916 22.9189 2.12777 23.0456 0 23.292V23.9623Z" fill="#219D80"/>
<path fill-rule="evenodd" clip-rule="evenodd" d="M0 12.4378C2.13395 12.2314 4.29703 12.1257 6.4844 12.1257C43.306 12.1257 73.243 42.0627 73.243 78.8843V305.1H73.9093V78.8843C73.9093 41.7074 43.6613 11.4595 6.4844 11.4595C4.29737 11.4595 2.13432 11.5642 0 11.7688V12.4378Z" fill="#219D80"/>
<path fill-rule="evenodd" clip-rule="evenodd" d="M0 0.932453C2.13836 0.756156 4.30082 0.666253 6.48388 0.666253C49.6127 0.666253 84.702 35.7556 84.702 78.8844V305.1H85.3683V78.8844C85.3683 35.4003 50.0124 0 6.48388 0C4.30106 0 2.13862 0.0892028 0 0.264153V0.932453Z" fill="#219D80"/>
</svg>
