<svg width="40" height="40" viewBox="0 0 40 40" fill="none" xmlns="http://www.w3.org/2000/svg">
<path d="M38.1309 34.6799V40H1.86914V34.6787C1.86914 32.1665 4.03501 29.0737 6.68087 27.817L12.5684 25.0198L16.6554 33.5367L18.748 27.8631C19.1606 27.9411 19.5697 28.0452 20 28.0452C20.4303 28.0452 20.8382 27.9411 21.252 27.8631L23.2382 33.2577L27.2448 24.9252L33.3227 27.8158C35.965 29.0725 38.1309 32.1653 38.1309 34.6799ZM7.21761 16.0336V12.1913C7.21761 11.5399 7.55691 10.9688 8.06882 10.6402C8.7557 4.6604 13.8417 0 20.0024 0C26.163 0 31.2502 4.6604 31.9383 10.6402C32.449 10.9688 32.7883 11.5399 32.7883 12.1913V16.0336C32.7883 17.0539 31.9619 17.8814 30.9405 17.8814C29.919 17.8814 29.0926 17.0539 29.0926 16.0336V15.2261C28.0925 20.2565 24.4098 24.9264 20.0036 24.9264C15.5973 24.9264 11.9147 20.2565 10.9145 15.2261V16.0336C10.9145 16.8611 10.3647 17.5539 9.61401 17.7892C10.3494 20.292 11.9809 22.4543 14.2342 23.873C14.6504 23.7359 15.1753 23.7619 15.6848 24.0267C16.5029 24.4523 16.9203 25.2799 16.6105 25.871C16.302 26.4621 15.3893 26.5946 14.5664 26.1678C13.9658 25.8545 13.5852 25.3284 13.545 24.8366C10.9641 23.1861 9.13402 20.6597 8.37857 17.7455C7.69996 17.4735 7.21761 16.8115 7.21761 16.0336ZM9.32791 10.2087C9.38347 10.2122 9.43668 10.2134 9.48988 10.2335C9.62347 10.2831 9.72041 10.3789 9.7878 10.4912C10.1886 10.6615 10.5078 10.9724 10.704 11.3578C11.2491 6.24934 15.1977 3.54673 20 3.54673C24.8023 3.54673 28.751 6.24934 29.296 11.3578C29.5667 10.827 30.081 10.4475 30.6969 10.3683C29.8977 5.17468 25.4123 1.18106 20 1.18106C14.6433 1.18224 10.1933 5.09428 9.32791 10.2087Z" fill="#219D80"/>
</svg>
