<svg width="40" height="40" viewBox="0 0 40 40" fill="none" xmlns="http://www.w3.org/2000/svg">
<g clip-path="url(#clip0_1_515)">
<path d="M28 10.3333H3.95333C1.77333 10.3333 0 12.1066 0 14.2859V28.3799C0 30.5599 1.77333 32.3333 3.95333 32.3333H8V38.9999C8 39.2753 8.16933 39.5226 8.42667 39.6219C8.50467 39.6519 8.586 39.6666 8.66667 39.6666C8.85067 39.6666 9.03133 39.5899 9.16 39.4486L15.628 32.3333H28C30.18 32.3333 31.9533 30.5599 31.9533 28.3806V14.2866C31.9533 12.1066 30.18 10.3333 28 10.3333Z" fill="#219D80"/>
<path d="M36.0477 0.379919L13.2863 0.333252C11.1063 0.333252 9.33301 2.10659 9.33301 4.28658V8.36792C9.33301 8.54525 9.40301 8.71459 9.52834 8.83992C9.65367 8.96459 9.82301 9.03458 9.99967 9.03458C9.99967 9.03458 10.0003 9.03458 10.001 9.03458L26.713 8.99992C32.6803 8.99992 33.333 10.3473 33.333 14.2866V28.3806C33.333 28.4412 33.3263 28.5012 33.3237 28.5612L34.173 29.4953C34.3017 29.6366 34.4817 29.7132 34.6663 29.7132C34.747 29.7132 34.8283 29.6986 34.907 29.6686C35.1637 29.5692 35.333 29.3219 35.333 29.0466V22.3799H36.0463C38.2263 22.3799 39.9997 20.6066 39.9997 18.4273V4.33325C39.9997 2.15325 38.2263 0.379919 36.0477 0.379919Z" fill="#219D80"/>
</g>
<defs>
<clipPath id="clip0_1_515">
<rect width="40" height="40" fill="white"/>
</clipPath>
</defs>
</svg>
